<?xml version="1.0" encoding="iso-8859-1"?>
<!-- Generator: Adobe Illustrator 25.2.3, SVG Export Plug-In . SVG Version: 6.00 Build 0)  -->
<svg version="1.1" baseProfile="basic" id="Layer_1"
	 xmlns="http://www.w3.org/2000/svg" x="0px" y="0px" viewBox="0 0 48 48"
	 xml:space="preserve">
<path style="fill:#F2CA00;" d="M29.313,6.112c-4.197-1.802-8.757-1.415-12.51,1.059C13.17,9.566,11,13.51,11,17.72
	c0,4.334,1.764,6.612,3.47,8.815c1.475,1.904,2.867,3.703,3.35,6.944C18.033,34.916,19.306,36,20.779,36h6.397
	c1.495,0,2.788-1.093,3.008-2.543c0.485-3.228,1.875-5.022,3.347-6.922c1.561-2.016,3.174-4.1,3.433-7.769
	C37.348,13.324,34.273,8.239,29.313,6.112z"/>
<path style="fill:#324561;" d="M46,20h-5c-0.553,0-1-0.447-1-1s0.447-1,1-1h5c0.553,0,1,0.447,1,1S46.553,20,46,20z"/>
<path style="fill:#324561;" d="M25,45h-2c-2.757,0-5-2.243-5-5v-4c0-0.553,0.447-1,1-1s1,0.447,1,1v4c0,1.654,1.346,3,3,3h2
	c1.654,0,3-1.346,3-3v-4c0-0.553,0.447-1,1-1s1,0.447,1,1v4C30,42.757,27.757,45,25,45z"/>
<path style="fill:#324561;" d="M38.565,8.206c-0.292,0-0.58-0.127-0.778-0.371c-0.348-0.429-0.281-1.059,0.148-1.406l3.886-3.146
	c0.429-0.348,1.058-0.28,1.406,0.148c0.348,0.429,0.281,1.059-0.148,1.406l-3.886,3.146C39.009,8.133,38.786,8.206,38.565,8.206z"/>
<path style="fill:#324561;" d="M42.449,34.94c-0.221,0-0.443-0.073-0.628-0.223l-3.886-3.146c-0.43-0.348-0.496-0.978-0.148-1.406
	s0.978-0.495,1.406-0.148l3.886,3.146c0.43,0.348,0.496,0.978,0.148,1.406C43.029,34.813,42.741,34.94,42.449,34.94z"/>
<path style="fill:#324561;" d="M7,20H2c-0.553,0-1-0.447-1-1s0.447-1,1-1h5c0.553,0,1,0.447,1,1S7.553,20,7,20z"/>
<path style="fill:#324561;" d="M9.435,8.206c-0.221,0-0.443-0.073-0.628-0.223L4.921,4.837c-0.43-0.348-0.496-0.978-0.148-1.406
	S5.75,2.935,6.179,3.282l3.886,3.146c0.43,0.348,0.496,0.978,0.148,1.406C10.015,8.079,9.727,8.206,9.435,8.206z"/>
<path style="fill:#324561;" d="M5.551,34.94c-0.292,0-0.58-0.127-0.778-0.371c-0.348-0.429-0.281-1.059,0.148-1.406l3.886-3.146
	c0.429-0.347,1.058-0.28,1.406,0.148c0.348,0.429,0.281,1.059-0.148,1.406l-3.886,3.146C5.994,34.867,5.771,34.94,5.551,34.94z"/>
</svg>