<?xml version="1.0" encoding="iso-8859-1"?>
<!-- Generator: Adobe Illustrator 25.2.3, SVG Export Plug-In . SVG Version: 6.00 Build 0)  -->
<svg version="1.1" baseProfile="basic" id="Layer_1"
	 xmlns="http://www.w3.org/2000/svg" x="0px" y="0px" viewBox="0 0 48 48"
	 xml:space="preserve">
<path style="fill:#8FCAE6;" d="M37,16h-1V6l-4,1l-4-1v11v2h-8v-2V6l-4,1l-4-1v10h-1c-2.761,0-5,2.239-5,5v16c0,0.552,0.448,1,1,1h12
	c0.552,0,1-0.448,1-1v-8h8v8c0,0.552,0.448,1,1,1h12c0.552,0,1-0.448,1-1V21C42,18.239,39.761,16,37,16z"/>
<path style="fill:#324561;" d="M16,8c-2.929,0-4.44-1.079-4.604-1.203c-0.44-0.333-0.527-0.96-0.194-1.4
	c0.331-0.438,0.951-0.528,1.392-0.201C12.634,5.223,13.771,6,16,6c2.258,0,3.396-0.797,3.407-0.805
	c0.444-0.317,1.068-0.225,1.393,0.216c0.324,0.44,0.24,1.056-0.196,1.386C20.44,6.921,18.929,8,16,8z"/>
<path style="fill:#324561;" d="M29,21H19c-0.553,0-1-0.448-1-1s0.447-1,1-1h10c0.553,0,1,0.448,1,1S29.553,21,29,21z"/>
<path style="fill:#324561;" d="M17,43H9c-1.654,0-3-1.346-3-3v-3c0-0.552,0.447-1,1-1s1,0.448,1,1v3c0,0.551,0.448,1,1,1h8
	c0.552,0,1-0.449,1-1v-3c0-0.552,0.447-1,1-1s1,0.448,1,1v3C20,41.654,18.654,43,17,43z"/>
<path style="fill:#324561;" d="M39,43h-8c-1.654,0-3-1.346-3-3v-3c0-0.552,0.447-1,1-1s1,0.448,1,1v3c0,0.551,0.448,1,1,1h8
	c0.552,0,1-0.449,1-1v-3c0-0.552,0.447-1,1-1s1,0.448,1,1v3C42,41.654,40.654,43,39,43z"/>
<path style="fill:#324561;" d="M32,8c-2.929,0-4.44-1.079-4.604-1.203c-0.44-0.333-0.527-0.96-0.194-1.4
	c0.331-0.438,0.952-0.528,1.392-0.201C28.634,5.223,29.771,6,32,6c2.258,0,3.396-0.797,3.407-0.805
	c0.443-0.317,1.068-0.225,1.393,0.216c0.324,0.44,0.24,1.056-0.196,1.386C36.44,6.921,34.929,8,32,8z"/>
</svg>