<?xml version="1.0" encoding="iso-8859-1"?>
<!-- Generator: Adobe Illustrator 25.2.3, SVG Export Plug-In . SVG Version: 6.00 Build 0)  -->
<svg version="1.1" baseProfile="basic" id="Layer_1"
	 xmlns="http://www.w3.org/2000/svg" x="0px" y="0px" viewBox="0 0 48 48"
	 xml:space="preserve">
<path style="fill:#FCA66C;" d="M35,4H13c-2.757,0-5,2.243-5,5v30c0,0.553,0.447,1,1,1s0-1.447,0-2c0-1.103,1.897-2,3-2l27,1
	c0.553,0,1-0.447,1-1V9C40,6.243,37.757,4,35,4z"/>
<path style="fill:#324561;" d="M39,44H12c-2.206,0-4-1.794-4-4v-1c0-2.206,1.794-4,4-4h27c0.553,0,1,0.447,1,1s-0.447,1-1,1H12
	c-1.103,0-2,0.897-2,2v1c0,1.103,0.897,2,2,2h27c0.553,0,1,0.447,1,1S39.553,44,39,44z"/>
<path style="fill:#324561;" d="M32,29c-0.431,0-0.828-0.279-0.958-0.712C30.093,25.125,27.463,23,24.5,23s-5.593,2.125-6.542,5.288
	c-0.158,0.527-0.711,0.826-1.246,0.67c-0.528-0.159-0.828-0.717-0.67-1.246C17.248,23.697,20.647,21,24.5,21
	s7.252,2.697,8.458,6.712c0.158,0.529-0.142,1.087-0.67,1.246C32.191,28.986,32.095,29,32,29z"/>
<path style="fill:#324561;" d="M24.5,19.91c-2.481,0-4.5-2.215-4.5-4.938s2.019-4.938,4.5-4.938S29,12.25,29,14.973
	S26.981,19.91,24.5,19.91z M24.5,12.035c-1.379,0-2.5,1.317-2.5,2.938s1.121,2.938,2.5,2.938s2.5-1.317,2.5-2.938
	S25.879,12.035,24.5,12.035z"/>
</svg>