<?xml version="1.0" encoding="iso-8859-1"?>
<!-- Generator: Adobe Illustrator 25.2.3, SVG Export Plug-In . SVG Version: 6.00 Build 0)  -->
<svg version="1.1" baseProfile="basic" xmlns="http://www.w3.org/2000/svg" x="0px"
	 y="0px" viewBox="0 0 48 48" xml:space="preserve">
<g id="Layer_1">
	<path style="fill:#F2CA00;" d="M43,27c0-1.895-0.99-3.657-2.522-4.489c-0.345-0.188-0.768-0.156-1.081,0.081
		c-0.095,0.072-0.169,0.162-0.231,0.259c-5.731-1.15-8.212-7.162-8.237-7.223c-0.118-0.293-0.368-0.514-0.675-0.595
		c-0.306-0.077-0.632-0.011-0.879,0.187c-8.092,6.478-17.69,7.563-20.439,7.742c-0.013,0.001-0.023,0.009-0.036,0.01
		c-0.068-0.147-0.164-0.282-0.299-0.384c-0.312-0.236-0.736-0.267-1.08-0.081C5.966,23.353,5,25.074,5,27
		c0,2.695,1.933,4.885,4.338,4.982C11.81,39.046,17.448,44,24,44s12.191-4.954,14.662-12.018C41.067,31.885,43,29.695,43,27z"/>
	<path style="fill:#324561;" d="M40,25c-0.553,0-1-0.447-1-1c0-0.114,0.004-0.283,0.009-0.499c0.163-6.629-0.946-11.211-3.297-13.62
		C34.478,8.615,32.936,8,31,8c-0.266,0-0.52-0.105-0.707-0.293C30.268,7.683,27.495,5,23,5C10.818,5,9,16.277,9,23v1
		c0,0.553-0.447,1-1,1s-1-0.447-1-1v-1C7,10.29,12.832,3,23,3c4.47,0,7.452,2.202,8.393,3.007c2.296,0.085,4.229,0.917,5.751,2.478
		c2.741,2.809,4.042,7.878,3.865,15.066C41.004,23.745,41,23.896,41,24C41,24.553,40.553,25,40,25z"/>
</g>
<g id="Layer_2" style="display:none;">
</g>
</svg>